<svg width="170" height="224" viewBox="0 0 170 224" fill="none" xmlns="http://www.w3.org/2000/svg">
<path d="M150 0C161.046 0 170 8.95431 170 20C170 27.8081 165.525 34.5695 159 37.8633V51C159 76.3133 146.29 98.6573 126.903 112C146.29 125.343 159 147.687 159 173V186.136C165.525 189.429 170 196.192 170 204C170 215.046 161.046 224 150 224H20C8.95431 224 0 215.046 0 204C0 196.192 4.4751 189.429 11 186.136V173C11 147.687 23.7098 125.343 43.0957 112C23.7098 98.6573 11 76.313 11 51V37.8633C4.47531 34.5695 0 27.8081 0 20C0 8.95431 8.95431 4.02661e-08 20 0H150ZM20 8C13.3726 8 8 13.3726 8 20C8 26.6274 13.3726 32 20 32H19V51C19 78.51 35.8314 102.088 59.7578 112C35.8314 121.912 19 145.49 19 173V192H20C13.3726 192 8 197.373 8 204C8 210.627 13.3726 216 20 216H150C156.627 216 162 210.627 162 204C162 197.709 157.16 192.549 151 192.041V173C151 145.49 134.168 121.912 110.241 112C134.168 102.088 151 78.5103 151 51V32H150C156.627 32 162 26.6274 162 20C162 13.3726 156.627 8 150 8H20Z" fill="white"/>
<path d="M151 32V51C151 78.5103 134.168 102.088 110.241 112C134.168 121.912 151 145.49 151 173V192H19V173C19 145.49 35.8314 121.912 59.7578 112C35.8314 102.088 19 78.51 19 51V32H151Z" fill="#FFD32A"/>
<path d="M150 192C156.627 192 162 197.373 162 204C162 210.627 156.627 216 150 216H20C13.3726 216 8 210.627 8 204C8 197.373 13.3726 192 20 192H150ZM150 8C156.627 8 162 13.3726 162 20C162 26.6274 156.627 32 150 32H20C13.3726 32 8 26.6274 8 20C8 13.3726 13.3726 8 20 8H150Z" fill="#3C40C6"/>
<path d="M120.732 60C126.5 60.0002 133.5 64.0002 125.5 72C117.5 80 89.5 89 89 105.5C88.9642 106.681 88.9333 107.624 88.9072 108.368C88.956 109.495 89 113.118 89 122C89 152 136.5 142.5 136.5 192H33.5C33.5 142.5 81 152 81 122C81 113.118 81.044 109.495 81.0928 108.368C81.0667 107.624 81.0358 106.681 81 105.5C80.5 89 52.5 80 44.5 72C36.5002 64.0002 43.4997 60.0002 49.2676 60H120.732Z" fill="#F53B57"/>
</svg>
