<svg width="32" height="32" viewBox="0 0 32 32" fill="none" xmlns="http://www.w3.org/2000/svg">
<path fill-rule="evenodd" clip-rule="evenodd" d="M8 0C3.58172 0 0 3.58172 0 8V24C0 28.4183 3.58172 32 8 32H24C28.4183 32 32 28.4183 32 24V8C32 3.58172 28.4183 0 24 0H8ZM10.86 17.76C10.62 17.032 10.5 16.208 10.5 15.288C10.5 14.376 10.62 13.56 10.86 12.84C11.1 12.112 11.444 11.496 11.892 10.992C12.348 10.48 12.9 10.092 13.548 9.828C14.196 9.556 14.928 9.42 15.744 9.42C16.56 9.42 17.288 9.556 17.928 9.828C18.576 10.092 19.124 10.48 19.572 10.992C20.028 11.496 20.376 12.112 20.616 12.84C20.856 13.56 20.976 14.376 20.976 15.288C20.976 16.208 20.856 17.032 20.616 17.76C20.376 18.48 20.028 19.092 19.572 19.596C19.124 20.1 18.576 20.488 17.928 20.76C17.288 21.024 16.56 21.156 15.744 21.156C14.928 21.156 14.196 21.024 13.548 20.76C12.9 20.488 12.348 20.1 11.892 19.596C11.444 19.092 11.1 18.48 10.86 17.76ZM22.632 27.336H25.596L21.192 22.524C21.736 22.132 22.224 21.676 22.656 21.156C23.088 20.636 23.452 20.072 23.748 19.464C24.044 18.848 24.268 18.192 24.42 17.496C24.58 16.792 24.66 16.056 24.66 15.288C24.66 14.024 24.444 12.852 24.012 11.772C23.588 10.684 22.984 9.744 22.2 8.952C21.424 8.152 20.488 7.528 19.392 7.08C18.296 6.624 17.08 6.396 15.744 6.396C14.408 6.396 13.192 6.624 12.096 7.08C11 7.528 10.06 8.148 9.276 8.94C8.492 9.732 7.884 10.672 7.452 11.76C7.028 12.84 6.816 14.016 6.816 15.288C6.816 16.56 7.028 17.74 7.452 18.828C7.884 19.916 8.492 20.856 9.276 21.648C10.06 22.44 11 23.064 12.096 23.52C13.192 23.968 14.408 24.192 15.744 24.192C16.584 24.192 17.392 24.1 18.168 23.916L20.532 26.544C20.82 26.848 21.132 27.056 21.468 27.168C21.812 27.28 22.2 27.336 22.632 27.336Z" fill="white"/>
</svg>
