<svg width="292" height="251" viewBox="0 0 292 251" fill="none" xmlns="http://www.w3.org/2000/svg">
<path d="M214 0C224.493 0 233 8.50659 233 19V81.5264L248.92 65.6064C254.778 59.7486 264.276 59.7486 270.134 65.6064C275.991 71.4642 275.991 80.9615 270.134 86.8193L251.953 105H277C285.284 105 292 111.716 292 120C292 128.284 285.284 135 277 135H252.213L270.134 152.92C275.992 158.778 275.992 168.276 270.134 174.134C264.276 179.992 254.778 179.992 248.92 174.134L233 158.213V213C233 223.493 224.493 232 214 232C206.241 232 199.569 227.348 196.618 220.682L96.5957 169.788L107.5 215.5C111.909 231.405 97.1805 251 79 251H74C61.1153 251 49.9009 243.056 46.8496 231.768L31.459 168.992C14.0355 168.703 0 154.492 0 137V95C0 77.3269 14.3269 63 32 63H95.0459L196.618 11.3174C199.569 4.65127 206.241 0 214 0ZM214 8C207.925 8 203 12.9249 203 19L101 71H36C20.536 71 8 83.536 8 99V133C8 148.464 20.536 161 36 161H39.5L55.0938 224.974C57.3869 234.38 65.8139 241 75.4961 241H77.1035C90.7654 241 100.79 228.161 97.4766 214.907L84 161H101L203 213C203 219.075 207.925 224 214 224C220.075 224 225 219.075 225 213V150.06C237.254 145.574 246 133.808 246 120C246 106.192 237.255 94.425 225 89.9395V19C225 12.9249 220.075 8 214 8ZM253.163 147.264C250.429 144.53 245.997 144.53 243.264 147.264C240.53 149.997 240.53 154.429 243.264 157.163L254.577 168.477C257.311 171.21 261.743 171.21 264.477 168.477C267.21 165.743 267.21 161.311 264.477 158.577L253.163 147.264ZM261 113C257.134 113 254 116.134 254 120C254 123.866 257.134 127 261 127H277C280.866 127 284 123.866 284 120C284 116.134 280.866 113 277 113H261ZM264.477 71.2637C261.743 68.53 257.311 68.53 254.577 71.2637L243.264 82.5771C240.53 85.3108 240.53 89.7429 243.264 92.4766C245.997 95.2102 250.429 95.2102 253.163 92.4766L264.477 81.1631C267.21 78.4294 267.21 73.9973 264.477 71.2637Z" fill="white"/>
<path d="M254 120C254 116.134 257.134 113 261 113H277C280.866 113 284 116.134 284 120C284 123.866 280.866 127 277 127H261C257.134 127 254 123.866 254 120Z" fill="#05C46B"/>
<path d="M243.264 147.263C240.53 149.997 240.53 154.429 243.264 157.163L254.577 168.477C257.311 171.21 261.743 171.21 264.477 168.477C267.21 165.743 267.21 161.311 264.477 158.577L253.163 147.263C250.429 144.53 245.997 144.53 243.264 147.263Z" fill="#05C46B"/>
<path d="M243.264 92.4766C240.53 89.7429 240.53 85.3108 243.264 82.5771L254.577 71.2634C257.311 68.5297 261.743 68.5297 264.477 71.2634C267.21 73.9971 267.21 78.4292 264.477 81.1629L253.163 92.4766C250.429 95.2103 245.997 95.2103 243.264 92.4766Z" fill="#05C46B"/>
<path d="M101 71L203 19V213L101 161V71Z" fill="#FFD32A"/>
<path d="M225 89.9395C237.255 94.425 246 106.192 246 120C246 133.808 237.254 145.574 225 150.06V89.9395Z" fill="#F53B57"/>
<path d="M8 99C8 83.536 20.536 71 36 71H101V161H36C20.536 161 8 148.464 8 133V99Z" fill="#F53B57"/>
<path d="M203 19C203 12.9249 207.925 8 214 8C220.075 8 225 12.9249 225 19V213C225 219.075 220.075 224 214 224C207.925 224 203 219.075 203 213V19Z" fill="#3C40C6"/>
<path d="M39.5 161H84L97.4767 214.907C100.79 228.161 90.7657 241 77.1037 241H75.4961C65.8137 241 57.3864 234.38 55.0935 224.973L39.5 161Z" fill="#3C40C6"/>
</svg>
