<svg width="272" height="228" viewBox="0 0 272 228" fill="none" xmlns="http://www.w3.org/2000/svg">
<path fill-rule="evenodd" clip-rule="evenodd" d="M136 0C164.718 0.000141132 188 23.2813 188 52C188 52.8539 187.978 53.703 187.937 54.5469C195.06 47.9991 204.562 44.0001 215 44C237.091 44.0001 255 61.9087 255 84C255 99.4322 246.259 112.82 233.46 119.491C259.925 127.169 275.651 152.37 271.272 191.965C269.942 203.991 262.532 208 253.412 208H217.508C214.728 222.925 204.434 228 191.933 228H80.0671C67.2913 228 56.8211 222.699 54.32 207H18.5886C9.46858 207 2.05829 202.991 0.728207 190.965C-3.58491 151.964 11.6068 126.928 37.3552 118.849C25.2043 111.984 16.9997 98.9512 16.9997 84C16.9997 61.9087 34.9085 44.0002 56.9997 44C67.437 44.0001 76.9398 47.9993 84.0622 54.5469C84.0215 53.703 83.9997 52.8539 83.9997 52C83.9997 23.2813 107.281 0.000214436 136 0ZM135.999 106C112.485 106 92.8755 113.751 79.612 128.474C73.0067 125.52 65.3826 124 56.9987 124C24.9883 124 4.0524 146.137 8.62567 185.784C9.76904 195.695 16.1386 199 23.9782 199H61.8561C61.8895 199.303 61.9223 199.607 61.9577 199.912C63.7078 214.978 73.4581 220 85.4577 220H186.541C198.517 220 208.252 214.997 210.03 200H248.02C255.86 200 262.23 196.696 263.374 186.784C267.947 147.137 247.009 125 214.999 125C206.884 125 199.48 126.423 193.024 129.193C179.755 114.004 159.893 106 135.999 106ZM56.9997 52C39.3268 52.0002 24.9997 66.327 24.9997 84C24.9997 101.673 39.3268 116 56.9997 116C74.6725 116 88.9997 101.673 88.9997 84C88.9997 66.3271 74.6725 52.0004 56.9997 52ZM215 52C197.327 52.0002 183 66.327 183 84C183 101.673 197.327 116 215 116C232.672 116 247 101.673 247 84C247 66.3271 232.672 52.0004 215 52ZM136 8C111.699 8.00023 91.9997 27.6996 91.9997 52C91.9997 76.3004 111.699 95.9998 136 96C160.3 95.9997 180 76.3004 180 52C180 27.6996 160.3 8.00027 136 8Z" fill="white"/>
<path d="M214.999 125C247.01 125 267.947 147.137 263.374 186.784C262.231 196.696 255.86 200 248.02 200H181.978C174.139 200 167.769 196.696 166.626 186.784C162.053 147.137 182.988 125 214.999 125Z" fill="#F53B57"/>
<path d="M215 52C232.673 52.0001 247 66.327 247 84C247 101.673 232.673 116 215 116C197.327 116 183 101.673 183 84C183 66.3269 197.327 52 215 52Z" fill="#F53B57"/>
<path d="M56.9989 124C89.0099 124 109.947 146.137 105.374 185.784C104.231 195.696 97.8604 199 90.0204 199H23.9784C16.1386 199 9.76925 195.696 8.62587 185.784C4.05256 146.137 24.9883 124 56.9989 124Z" fill="#FFD32A"/>
<path d="M56.9999 52C74.6729 52.0001 88.9999 66.327 88.9999 84C88.9999 101.673 74.6729 116 56.9999 116C39.3268 116 24.9999 101.673 24.9999 84C24.9999 66.3269 39.3268 52 56.9999 52Z" fill="#FFD32A"/>
<path d="M135.999 106C184.995 106 217.041 139.648 210.041 199.912C208.291 214.978 198.541 220 186.541 220H85.4582C73.4583 220 63.7083 214.978 61.9582 199.912C54.9582 139.648 87.0035 106 135.999 106Z" fill="#3C40C6"/>
<path d="M136 8C160.301 8.00016 180 27.6996 180 52C180 76.3004 160.301 95.9998 136 96C111.7 96 92.0002 76.3005 92.0002 52C92.0002 27.6995 111.7 8 136 8Z" fill="#3C40C6"/>
</svg>
