<svg width="32" height="32" viewBox="0 0 32 32" fill="none" xmlns="http://www.w3.org/2000/svg">
<rect width="32" height="32" rx="8" fill="url(#paint0_linear_46_6252)"/>
<path d="M10.4452 5.96373C12.0747 4.79893 14.2386 4.61701 16.2011 5.8231C18.1637 4.61658 20.3282 4.79875 21.9579 5.96373C23.4169 7.00677 24.3946 8.79171 24.5038 10.9374C26.1656 11.4772 27.3978 12.3433 28.2157 13.409C29.1412 14.6148 29.4937 16.022 29.3837 17.3563C29.1666 19.9878 27.1084 22.4413 24.0527 22.4413H22.0048C21.278 22.4413 20.8748 22.683 20.5849 22.9999C20.2507 23.3652 20.0231 23.8769 19.7743 24.5155C19.6593 24.8109 19.5306 25.1539 19.3925 25.4579C19.254 25.7626 19.0746 26.1001 18.8222 26.3856C18.5569 26.6855 18.1981 26.9424 17.7236 27.0389C17.263 27.1325 16.793 27.0547 16.3329 26.8797L16.2011 26.829L16.0702 26.8797C15.6102 27.0547 15.1401 27.1325 14.6796 27.0389C14.2049 26.9423 13.8453 26.6857 13.58 26.3856C13.3276 26.1 13.1482 25.7626 13.0097 25.4579C12.8716 25.1539 12.7439 24.8109 12.6288 24.5155C12.3801 23.8769 12.1525 23.3652 11.8183 22.9999C11.5284 22.683 11.1252 22.4413 10.3984 22.4413H8.34953C5.29406 22.441 3.23659 19.9876 3.01945 17.3563C2.90941 16.0219 3.26196 14.6148 4.18742 13.409C5.00541 12.3433 6.2375 11.4772 7.89933 10.9374C8.00858 8.79171 8.98622 7.00677 10.4452 5.96373ZM15.746 6.61217C12.4462 4.56224 8.6349 7.23837 8.80558 11.6229C1.46727 13.4873 3.31385 21.4055 8.23332 21.5292L8.34953 21.5301H10.3984C14.3237 21.5303 12.9017 27.1107 15.746 26.0292V6.61217ZM23.5976 11.6229C23.7683 7.23839 19.957 4.56228 16.6571 6.61217V26.0292C19.5014 27.1105 18.0793 21.5302 22.0048 21.5301H24.0527L24.1698 21.5292C29.0893 21.4055 30.9359 13.4873 23.5976 11.6229Z" fill="white"/>
<path d="M16.6567 6.61175V26.029C19.5014 27.1109 18.0791 21.5306 22.0047 21.5306H24.0529C29.0595 21.5306 30.9939 13.5018 23.5978 11.6227C23.7684 7.23812 19.9566 4.56182 16.6567 6.61175Z" fill="#FFD32A"/>
<path d="M15.7464 6.61175V26.029C12.9018 27.1109 14.3241 21.5306 10.3984 21.5306H8.35028C3.34364 21.5306 1.40926 13.5018 8.80543 11.6227C8.63475 7.23812 12.4466 4.56182 15.7464 6.61175Z" fill="#F53B57"/>
<path d="M22.6316 17.6321C23.4801 17.6321 24.1677 18.3207 24.1677 19.1692C24.1675 20.0176 23.48 20.7053 22.6316 20.7053C21.7832 20.7053 21.0956 20.0175 21.0954 19.1692C21.0954 18.3207 21.7831 17.6321 22.6316 17.6321ZM12.0476 14.218C13.2103 14.218 14.1529 15.1608 14.153 16.3235C14.153 17.4863 13.2104 18.4289 12.0476 18.429C10.8848 18.429 9.9421 17.4863 9.9421 16.3235C9.94223 15.1608 10.8848 14.218 12.0476 14.218ZM18.99 14.4456C19.8384 14.4456 20.5261 15.1342 20.5261 15.9827C20.5259 16.831 19.8383 17.5187 18.99 17.5188C18.1415 17.5188 17.454 16.831 17.4538 15.9827C17.4538 15.1341 18.1414 14.4456 18.99 14.4456ZM21.7214 11.4866C22.5698 11.4867 23.2575 12.1752 23.2575 13.0237C23.2573 13.872 22.5697 14.5597 21.7214 14.5598C20.873 14.5598 20.1854 13.8721 20.1853 13.0237C20.1853 12.1751 20.8729 11.4866 21.7214 11.4866ZM12.2185 9.8938C13.1612 9.89392 13.9255 10.6581 13.9255 11.6008C13.9255 12.5436 13.1612 13.3077 12.2185 13.3079C11.2757 13.3079 10.5114 12.5436 10.5114 11.6008C10.5114 10.658 11.2757 9.8938 12.2185 9.8938Z" fill="white"/>
<defs>
<linearGradient id="paint0_linear_46_6252" x1="16" y1="0" x2="16" y2="32" gradientUnits="userSpaceOnUse">
<stop stop-color="#575FCF"/>
<stop offset="1" stop-color="#575FCF"/>
</linearGradient>
</defs>
</svg>
