<svg width="32" height="32" viewBox="0 0 32 32" fill="none" xmlns="http://www.w3.org/2000/svg">
<rect width="32" height="32" rx="8" fill="url(#paint0_linear_9_4)"/>
<path d="M10.5 15.288C10.5 16.208 10.62 17.032 10.86 17.76C11.1 18.48 11.444 19.092 11.892 19.596C12.348 20.1 12.9 20.488 13.548 20.76C14.196 21.024 14.928 21.156 15.744 21.156C16.56 21.156 17.288 21.024 17.928 20.76C18.576 20.488 19.124 20.1 19.572 19.596C20.028 19.092 20.376 18.48 20.616 17.76C20.856 17.032 20.976 16.208 20.976 15.288C20.976 14.376 20.856 13.56 20.616 12.84C20.376 12.112 20.028 11.496 19.572 10.992C19.124 10.48 18.576 10.092 17.928 9.828C17.288 9.556 16.56 9.42 15.744 9.42C14.928 9.42 14.196 9.556 13.548 9.828C12.9 10.092 12.348 10.48 11.892 10.992C11.444 11.496 11.1 12.112 10.86 12.84C10.62 13.56 10.5 14.376 10.5 15.288ZM25.596 27.336H22.632C22.2 27.336 21.812 27.28 21.468 27.168C21.132 27.056 20.82 26.848 20.532 26.544L18.168 23.916C17.392 24.1 16.584 24.192 15.744 24.192C14.408 24.192 13.192 23.968 12.096 23.52C11 23.064 10.06 22.44 9.276 21.648C8.492 20.856 7.884 19.916 7.452 18.828C7.028 17.74 6.816 16.56 6.816 15.288C6.816 14.016 7.028 12.84 7.452 11.76C7.884 10.672 8.492 9.732 9.276 8.94C10.06 8.148 11 7.528 12.096 7.08C13.192 6.624 14.408 6.396 15.744 6.396C17.08 6.396 18.296 6.624 19.392 7.08C20.488 7.528 21.424 8.152 22.2 8.952C22.984 9.744 23.588 10.684 24.012 11.772C24.444 12.852 24.66 14.024 24.66 15.288C24.66 16.056 24.58 16.792 24.42 17.496C24.268 18.192 24.044 18.848 23.748 19.464C23.452 20.072 23.088 20.636 22.656 21.156C22.224 21.676 21.736 22.132 21.192 22.524L25.596 27.336Z" fill="white"/>
<defs>
<linearGradient id="paint0_linear_9_4" x1="16" y1="0" x2="16" y2="32" gradientUnits="userSpaceOnUse">
<stop stop-color="#575FCF"/>
<stop offset="1" stop-color="#3C40C6"/>
</linearGradient>
</defs>
</svg>
