<svg width="237" height="233" viewBox="0 0 237 233" fill="none" xmlns="http://www.w3.org/2000/svg">
<path fill-rule="evenodd" clip-rule="evenodd" d="M119.397 0.00976562C136.407 0.436587 146.54 14.174 143.936 25.1025C169.436 30.1025 194.082 62 194.082 85.5V123C194.082 142 219.582 157.5 219.582 180C219.582 193.058 208.055 197.621 202.582 198H153.582C153.582 217.33 137.912 233 118.582 233C99.5542 233 84.0728 217.816 83.5937 198.903L83.5819 198H34.5819C29.1084 197.621 17.582 193.058 17.5819 180C17.5819 157.5 43.0819 142 43.0819 123V85.5C43.0819 62.0002 67.7267 30.103 93.2265 25.1025C90.5816 14.0006 101.082 0.000166845 118.582 0L119.397 0.00976562ZM91.5907 198.697C91.9606 213.287 103.904 225 118.582 225C133.494 225 145.582 212.912 145.582 198H91.5819L91.5907 198.697ZM118.582 8C107.582 8.00019 98.0821 18.0001 101.082 30.5C74.5821 35 51.082 64 51.0819 88V120.5C51.0819 146.5 26.5821 162.5 26.5819 177.5C26.582 189.5 36.0485 189.652 41.0819 190H196.082C201.115 189.652 210.582 189.5 210.582 177.5C210.582 162.5 186.082 146.5 186.082 120.5V88C186.082 63.9999 162.582 35 136.082 30.5C139.035 18.1953 129.876 8.31281 119.097 8.00684L118.582 8Z" fill="white"/>
<path fill-rule="evenodd" clip-rule="evenodd" d="M27.5273 22.7041C34.9966 17.7015 45.1261 19.5571 50.3368 26.9346L50.579 27.2871C55.5171 34.6671 53.7801 44.657 46.6005 49.9248L46.6015 49.9258C46.4835 50.0147 46.3468 50.1225 46.1845 50.2578V50.2598C45.7856 50.5923 45.1021 51.191 44.2519 52.0537L44.2509 52.0557C42.6413 53.6887 40.5293 56.1671 38.5917 59.4658L38.2069 60.1367C34.3875 66.9475 30.9669 77.778 35.1562 93.5947L35.3612 94.3525C37.7753 103.054 32.8051 112.072 24.2069 114.692L23.7939 114.812C14.9439 117.266 5.79227 112.071 3.33975 103.233L3.01748 102.04C-3.57991 77.073 1.61888 57.4162 9.22159 43.8594L9.9335 42.6211C13.5126 36.5258 17.4337 31.9022 20.5829 28.707L21.206 28.083C22.6375 26.6688 23.9055 25.5475 24.9042 24.7148L25.5331 24.1963C26.1256 23.7161 26.6233 23.3372 27.1698 22.9502L27.1747 22.9473L27.5273 22.7041ZM43.8036 31.5498C41.0559 27.6595 35.678 26.7326 31.7929 29.4795C31.287 29.8377 30.8174 30.1988 30.0263 30.8584C29.0636 31.661 27.7659 32.8149 26.2802 34.3223C23.3164 37.3293 19.5476 41.8026 16.1991 47.7734C9.40019 59.8973 4.58506 77.7997 11.0487 101.095C12.3226 105.684 17.0724 108.375 21.6571 107.104C26.2418 105.832 28.9254 101.081 27.6523 96.4912C22.5291 78.027 26.4222 64.7941 31.2284 56.2236C33.6825 51.8477 36.441 48.5828 38.5536 46.4395C39.6057 45.372 40.4842 44.5962 41.0624 44.1143C41.2998 43.9163 41.5411 43.7221 41.788 43.5361C45.6352 40.7796 46.5403 35.4252 43.8036 31.5498Z" fill="white"/>
<path fill-rule="evenodd" clip-rule="evenodd" d="M185.783 25.9346C190.994 18.5571 201.123 16.7015 208.593 21.7041L208.945 21.9473L208.95 21.9502C209.497 22.3372 209.994 22.7161 210.587 23.1963L211.216 23.7148C212.214 24.5475 213.482 25.6688 214.914 27.083L215.537 27.707C218.686 30.9022 222.607 35.5258 226.186 41.6211L226.898 42.8594C234.501 56.4162 239.7 76.073 233.102 101.04L232.78 102.233C230.328 111.071 221.176 116.266 212.326 113.812L211.914 113.692C203.316 111.072 198.345 102.054 200.759 93.3525L200.964 92.5947C205.153 76.778 201.732 65.9475 197.913 59.1367L197.528 58.4658C195.591 55.167 193.479 52.6887 191.869 51.0557L191.868 51.0537C191.018 50.1911 190.334 49.5923 189.935 49.2598V49.2578C189.773 49.1225 189.636 49.0147 189.518 48.9258L189.519 48.9248C182.34 43.657 180.603 33.6671 185.541 26.2871L185.783 25.9346ZM204.327 28.4795C200.442 25.7327 195.065 26.6596 192.317 30.5498C189.58 34.4252 190.485 39.7795 194.332 42.5361C194.579 42.7221 194.82 42.9163 195.058 43.1143C195.636 43.5962 196.514 44.372 197.566 45.4395C199.679 47.5828 202.437 50.8477 204.892 55.2236C209.698 63.7941 213.591 77.027 208.468 95.4912C207.195 100.081 209.878 104.832 214.463 106.104C219.048 107.375 223.797 104.684 225.071 100.095C231.535 76.7997 226.72 58.8973 219.921 46.7734C216.572 40.8026 212.803 36.3293 209.84 33.3223C208.354 31.8149 207.056 30.661 206.094 29.8584C205.303 29.1988 204.833 28.8377 204.327 28.4795Z" fill="white"/>
<path d="M145.581 198C145.581 212.912 133.492 225 118.581 225C103.903 225 91.9599 213.286 91.5901 198.697L91.5813 198H145.581Z" fill="#F53B57"/>
<path d="M119.096 8.00684C129.876 8.3129 139.035 18.1954 136.082 30.5C162.582 35 186.082 64 186.082 88V120.5C186.082 146.5 210.582 162.5 210.582 177.5C210.582 189.5 201.115 189.652 196.082 190H41.0822C36.0489 189.652 26.5823 189.5 26.5822 177.5C26.5824 162.5 51.0822 146.5 51.0822 120.5V88C51.0823 63.9999 74.5823 34.9999 101.082 30.5C98.0823 17.9999 107.582 8 118.582 8L119.096 8.00684Z" fill="#FFD32A"/>
<path d="M31.7917 29.48C35.6769 26.7329 41.0548 27.6599 43.8025 31.5503C46.5395 35.4258 45.6344 40.7801 41.7869 43.5366C41.5401 43.7226 41.2986 43.9168 41.0613 44.1147C40.4831 44.5967 39.6043 45.3727 38.5525 46.4399C36.4401 48.5831 33.682 51.8478 31.2283 56.2231C26.4221 64.7937 22.5287 78.0273 27.6521 96.4917C28.9252 101.081 26.2409 105.833 21.656 107.104C17.0712 108.375 12.3212 105.684 11.0476 101.094C4.58416 77.7996 9.40017 59.8978 16.199 47.7739C19.5474 41.8032 23.3163 37.3298 26.28 34.3228C27.7656 32.8155 29.0635 31.6624 30.0261 30.8599C30.8172 30.2003 31.2859 29.8381 31.7917 29.48ZM192.317 30.5503C195.065 26.6599 200.443 25.7329 204.328 28.48C204.834 28.8381 205.302 29.2003 206.093 29.8599C207.056 30.6625 208.354 31.8154 209.84 33.3228C212.803 36.3298 216.572 40.8031 219.921 46.7739C226.72 58.8978 231.535 76.7994 225.071 100.094C223.797 104.684 219.048 107.375 214.464 106.104C209.879 104.833 207.194 100.081 208.468 95.4917C213.59 77.0272 209.698 63.7937 204.891 55.2231C202.437 50.8474 199.679 47.5832 197.566 45.4399C196.514 44.3724 195.636 43.5967 195.057 43.1147C194.821 42.9168 194.58 42.7226 194.333 42.5366C190.485 39.7801 189.58 34.4258 192.317 30.5503Z" fill="#05C46B"/>
</svg>
