<svg width="299" height="236" viewBox="0 0 299 236" fill="none" xmlns="http://www.w3.org/2000/svg">
<path d="M149.999 49.2312C167.244 38.632 186.263 40.2312 200.582 50.4675C213.402 59.6325 221.986 75.3147 222.946 94.1677C237.55 98.911 248.376 106.524 255.563 115.889C263.695 126.484 266.796 138.846 265.829 150.57C263.922 173.693 245.839 195.25 218.988 195.25H200.991C194.604 195.25 191.062 197.378 188.515 200.163C185.577 203.373 183.575 207.869 181.389 213.482C180.378 216.078 179.255 219.087 178.041 221.758C176.824 224.436 175.249 227.4 173.03 229.91C170.699 232.546 167.546 234.798 163.376 235.647C159.328 236.471 155.2 235.792 151.156 234.255L150 233.814L148.844 234.255C144.8 235.792 140.672 236.471 136.624 235.647C132.453 234.799 129.301 232.546 126.97 229.91C124.751 227.4 123.176 224.436 121.959 221.758C120.745 219.087 119.622 216.078 118.611 213.482C116.425 207.869 114.422 203.373 111.485 200.163C108.938 197.378 105.396 195.25 99.0087 195.25H81.0116C54.1608 195.25 36.0779 173.693 34.1708 150.57C33.2039 138.845 36.3047 126.485 44.4364 115.889C51.6243 106.524 62.4501 98.911 77.0536 94.1677C78.0135 75.3145 86.5979 59.6325 99.4179 50.4675C113.736 40.2314 132.754 38.6326 149.999 49.2312ZM146 56.1629C117.005 38.1507 83.5109 61.6664 85.0106 100.192C20.5308 116.574 36.7592 186.151 79.9852 187.237L81.0116 187.25H99.0087C133.502 187.25 121.005 236.283 146 226.777V56.1629ZM214.989 100.192C216.489 61.6664 182.995 38.1509 154 56.1629V226.777C178.995 236.283 166.498 187.25 200.991 187.25H218.988L220.015 187.237C263.24 186.15 279.468 116.575 214.989 100.192Z" fill="white"/>
<path d="M153.998 56.1621V226.776C178.994 236.283 166.496 187.25 200.99 187.25H218.986C262.978 187.25 279.975 116.703 214.987 100.192C216.487 61.6658 182.993 38.1499 153.998 56.1621Z" fill="#FFD32A"/>
<path d="M146 56.1621V226.776C121.004 236.283 133.502 187.25 99.0082 187.25H81.0115C37.0195 187.25 20.0226 116.703 85.0107 100.192C83.511 61.6658 117.005 38.1499 146 56.1621Z" fill="#F53B57"/>
<path d="M206.498 153C213.954 153 219.998 159.044 219.998 166.5C219.998 173.956 213.954 180 206.498 180C199.043 180 192.999 173.956 192.998 166.5C192.998 159.044 199.043 153 206.498 153ZM113.498 123C123.716 123 131.998 131.283 131.998 141.5C131.998 151.717 123.716 160 113.498 160C103.281 160 94.9985 151.717 94.9984 141.5C94.9984 131.283 103.281 123 113.498 123ZM174.498 125C181.954 125 187.998 131.044 187.998 138.5C187.998 145.956 181.954 152 174.498 152C167.043 152 160.999 145.956 160.998 138.5C160.998 131.044 167.043 125 174.498 125ZM198.498 99C205.954 99.0001 211.998 105.044 211.998 112.5C211.998 119.956 205.954 126 198.498 126C191.043 126 184.999 119.956 184.998 112.5C184.998 105.044 191.043 99 198.498 99ZM114.998 85C123.283 85.0001 129.998 91.7158 129.998 100C129.998 108.284 123.283 115 114.998 115C106.714 115 99.9985 108.284 99.9984 100C99.9984 91.7157 106.714 85 114.998 85Z" fill="white"/>
<path d="M293.823 33.7353C293.774 28.8838 292.262 24.0872 289.551 19.78C286.837 15.4839 282.857 11.6697 277.755 9.05407C271.475 5.8143 265.41 4.7755 260.302 5.02486C255.182 5.25807 252.124 7.01776 252.124 7.01776C251.163 7.25454 250.356 7.90287 249.921 8.79044C249.487 9.6804 249.468 10.7148 249.873 11.6157L253.099 18.8181C253.757 20.2859 255.372 21.0718 256.932 20.6839C256.932 20.6839 258.23 19.8113 260.958 19.6866C263.694 19.576 266.939 20.0209 271.057 22.116C274.647 23.9469 277.086 26.8897 278.281 29.8142C278.876 31.2646 279.148 32.6862 279.156 33.864C279.165 35.0514 278.924 35.9617 278.603 36.5824C277.515 38.6783 276.402 39.8436 275.213 40.7128C274.315 41.357 273.331 41.8325 272.19 42.1982C270.486 42.748 268.425 43.0065 266.221 43.0854C264.009 43.1752 261.724 43.0799 259.329 43.1524C256.591 43.241 253.465 43.7815 250.492 45.4739C249.016 46.307 247.627 47.4143 246.435 48.7223C245.237 50.0288 244.231 51.5268 243.396 53.1538C242.506 54.8896 241.775 56.3147 241.775 56.3147C240.936 57.9508 241.581 59.9569 243.215 60.795L250.346 64.4511C251.98 65.2892 253.986 64.6421 254.825 63.0059C254.825 63.0059 255.556 61.5809 256.446 59.845C256.768 59.2181 257.046 58.8504 257.246 58.629C257.561 58.306 257.676 58.244 257.988 58.1096C258.299 57.9889 258.87 57.8534 259.81 57.8233C261.189 57.7698 263.327 57.838 265.814 57.7834C269.548 57.6824 274.204 57.3339 279.026 55.2925C281.428 54.2712 283.844 52.7973 286.021 50.7881C288.205 48.783 290.125 46.2551 291.651 43.273C293.197 40.2517 293.85 36.9642 293.823 33.7353Z" fill="#3C40C6"/>
<path d="M243.168 69.6726C238.723 67.3933 233.268 69.1544 230.987 73.603C228.706 78.0503 230.46 83.5062 234.905 85.7853C239.348 88.0633 244.801 86.3028 247.082 81.8555C249.363 77.4069 247.611 71.9506 243.168 69.6726Z" fill="#3C40C6"/>
<path d="M260.064 0.0413144C266.034 -0.250121 272.968 0.971879 280.032 4.61358L280.033 4.61283C285.767 7.55289 290.301 11.8091 293.465 16.6412L293.767 17.1106L293.772 17.1178L294.064 17.5902C296.941 22.3249 298.64 27.6437 298.799 33.1311L298.809 33.6805L298.809 33.6876L298.805 34.4254C298.739 38.1237 297.926 41.952 296.089 45.5426C294.313 49.0121 292.044 52.0213 289.399 54.4518L289.4 54.453C286.765 56.886 283.852 58.6597 280.974 59.8839L280.966 59.8863C275.272 62.2965 269.865 62.664 265.945 62.7701L265.932 62.7703L265.92 62.7707C264.605 62.7996 263.39 62.7958 262.375 62.7923C261.62 62.7897 261.02 62.7877 260.536 62.7947C260.229 63.3933 259.954 63.9305 259.738 64.3508C259.591 64.6373 259.472 64.8697 259.389 65.0304C259.348 65.1106 259.316 65.1731 259.295 65.2154C259.284 65.2366 259.275 65.2529 259.269 65.2638C259.267 65.2688 259.265 65.2729 259.264 65.2756C259.263 65.2769 259.262 65.2785 259.262 65.2792L259.261 65.2799C257.577 68.5636 254.014 70.2499 250.56 69.7027C253.354 73.7318 253.942 79.1039 251.679 83.8055L251.518 84.1297C248.035 90.9205 239.785 93.6738 232.952 90.3867L232.628 90.2253C225.734 86.6905 223.012 78.2283 226.551 71.3276L226.721 71.0082C229.218 66.4272 233.922 63.7704 238.825 63.6873C236.364 61.2021 235.655 57.3232 237.339 54.0396C237.34 54.0389 237.34 54.0371 237.341 54.036C237.342 54.0332 237.345 54.0288 237.348 54.0234C237.353 54.0126 237.361 53.996 237.372 53.9749C237.394 53.9325 237.427 53.8703 237.468 53.7901C237.55 53.6293 237.67 53.397 237.817 53.1104C238.11 52.5372 238.515 51.7468 238.96 50.879L239.35 50.1455C240.287 48.4443 241.414 46.8209 242.763 45.3504C244.296 43.6696 246.091 42.2339 248.03 41.1375L248.395 40.934C252.176 38.879 256.024 38.2674 259.172 38.1656L259.182 38.1647L260.146 38.1436C261.1 38.1291 262.019 38.1332 262.864 38.1358C264.022 38.1393 265.042 38.1399 266.024 38.1001L266.048 38.0993C268.033 38.0282 269.58 37.7996 270.664 37.4498L270.673 37.4467L270.933 37.359C271.511 37.153 271.936 36.9236 272.296 36.6662C272.605 36.4382 272.877 36.1962 273.149 35.8766C273.425 35.5523 273.755 35.0822 274.133 34.3665C274.148 34.298 274.172 34.1477 274.17 33.906L274.163 33.7091C274.132 33.2181 273.996 32.5105 273.668 31.7117L273.666 31.7052C272.906 29.8454 271.277 27.8299 268.789 26.5609C265.466 24.8713 263.078 24.5957 261.18 24.6692L261.181 24.6704C260.319 24.7098 259.792 24.8614 259.57 24.9392C259.541 24.9493 259.517 24.9587 259.498 24.9664L258.983 25.3133L258.131 25.525C254.229 26.495 250.193 24.5313 248.549 20.8625L245.322 13.6596C244.31 11.4006 244.362 8.81743 245.439 6.60706L245.445 6.59529L249.921 8.78962L249.845 8.95864C249.487 9.8089 249.494 10.7707 249.873 11.6153L253.099 18.8182C253.716 20.194 255.174 20.9706 256.64 20.7426L256.932 20.6839C256.932 20.6839 258.23 19.8107 260.958 19.686C263.693 19.5753 266.938 20.0208 271.056 22.1158C274.646 23.9467 277.087 26.889 278.282 29.8136C278.877 31.2639 279.148 32.6856 279.157 33.8635C279.166 35.0509 278.924 35.9617 278.603 36.5823C277.515 38.678 276.402 39.8433 275.213 40.7124C274.316 41.3566 273.331 41.8322 272.191 42.1979L271.867 42.2979C270.229 42.7796 268.288 43.011 266.221 43.0849C264.009 43.1747 261.724 43.08 259.328 43.1525C256.591 43.2411 253.465 43.7816 250.493 45.4739L249.944 45.7984C248.672 46.5864 247.479 47.5772 246.436 48.7218C245.237 50.0283 244.231 51.5264 243.396 53.1534L241.776 56.314L241.701 56.4683C240.977 58.0742 241.632 59.9822 243.215 60.7943L250.346 64.4503C251.93 65.2623 253.861 64.6805 254.743 63.1555L254.825 63.0057L256.446 59.8442C256.768 59.2176 257.046 58.8499 257.246 58.6285C257.561 58.3055 257.676 58.2437 257.989 58.1093C258.299 57.9885 258.87 57.8531 259.81 57.823C261.017 57.7762 262.804 57.8226 264.899 57.7983L265.815 57.7828C269.432 57.6849 273.914 57.3552 278.575 55.4787L279.027 55.2926C281.429 54.2714 283.844 52.7969 286.02 50.7879C288.068 48.9081 289.884 46.5688 291.361 43.8265L291.652 43.2729C293.198 40.2518 293.851 36.9641 293.823 33.7353C293.776 29.0356 292.356 24.3869 289.803 20.1852L289.551 19.7793C286.922 15.6176 283.104 11.908 278.23 9.30226L277.756 9.05376C271.476 5.81404 265.41 4.77566 260.302 5.02498L259.828 5.05075C254.995 5.36593 252.124 7.01725 252.124 7.01725C251.163 7.25405 250.356 7.90235 249.921 8.78962L245.445 6.59529C246.423 4.59953 248.152 3.09509 250.227 2.38389C250.338 2.32919 250.464 2.26961 250.603 2.20555C251.12 1.9681 251.83 1.6729 252.719 1.37627C254.491 0.784371 256.986 0.183217 260.064 0.0413144ZM243.168 69.672C238.723 67.3929 233.269 69.1545 230.987 73.603L230.785 74.0222C228.819 78.3877 230.599 83.5774 234.905 85.7854C239.209 87.992 244.461 86.4083 246.859 82.264L247.081 81.8553C249.291 77.5458 247.717 72.2899 243.578 69.8946L243.168 69.672ZM259.699 24.8304C259.701 24.8294 259.703 24.8295 259.705 24.8285C259.706 24.8277 259.707 24.8267 259.708 24.8263L259.707 24.8251L259.699 24.8304Z" fill="white"/>
</svg>
