<svg width="288" height="223" viewBox="0 0 288 223" fill="none" xmlns="http://www.w3.org/2000/svg">
<path d="M242.262 2.22366C248.051 0.678299 255.103 0.414463 262.795 2.49808L262.796 2.4971C269.036 4.17283 274.378 7.39343 278.5 11.4678L278.894 11.8653L278.901 11.8711L279.287 12.2735C283.107 16.3131 285.896 21.1747 287.21 26.5264L287.336 27.0635L287.338 27.0703L287.49 27.795C288.206 31.4385 288.219 35.367 287.177 39.2784V39.2793C286.169 43.0588 284.581 46.4896 282.503 49.4326L282.504 49.4336C280.436 52.3771 277.957 54.7325 275.394 56.541L275.388 56.545C270.317 60.1113 265.095 61.613 261.276 62.544L261.264 62.5469L261.252 62.5498C259.969 62.8555 258.778 63.1077 257.782 63.3184C257.042 63.475 256.454 63.6 255.98 63.709C255.806 64.3612 255.65 64.9464 255.527 65.4043C255.444 65.7162 255.377 65.9695 255.33 66.1446C255.307 66.232 255.289 66.3006 255.276 66.3467C255.27 66.3697 255.265 66.3876 255.262 66.3994C255.26 66.4049 255.259 66.4092 255.259 66.4121C255.258 66.4136 255.258 66.4153 255.258 66.416L255.257 66.417C254.3 69.9949 251.164 72.4012 247.664 72.5928C251.253 75.9574 252.964 81.1058 251.74 86.1973L251.65 86.5489C250.455 91.0192 247.243 94.4095 243.258 96C245.604 98.1671 247.706 100.469 249.563 102.89C257.695 113.485 260.796 125.846 259.829 137.57C257.922 160.693 239.839 182.25 212.988 182.25H194.991C188.604 182.25 185.062 184.379 182.515 187.163C179.577 190.374 177.575 194.869 175.389 200.482C174.378 203.078 173.255 206.087 172.041 208.758C170.824 211.436 169.249 214.401 167.03 216.91C164.699 219.546 161.546 221.799 157.376 222.647C153.328 223.471 149.2 222.793 145.156 221.255L144 220.814L142.844 221.255C138.8 222.793 134.672 223.471 130.624 222.647C126.453 221.799 123.301 219.547 120.97 216.91C118.751 214.401 117.176 211.436 115.959 208.758C114.745 206.087 113.622 203.078 112.611 200.482C110.425 194.869 108.422 190.374 105.485 187.163C102.938 184.378 99.3961 182.25 93.0087 182.25H75.0116C48.161 182.25 30.0778 160.693 28.1708 137.57C27.2039 125.846 30.3048 113.485 38.4364 102.89C45.6242 93.5244 56.4502 85.9113 71.0536 81.168C72.0135 62.3149 80.598 46.6328 93.4178 37.4678C107.737 27.2316 126.755 25.6327 144 36.2315C161.245 25.6324 180.263 27.2315 194.582 37.4678C207.402 46.6327 215.986 62.3147 216.946 81.168C219.414 81.9696 221.773 82.8553 224.026 83.8155C223.929 82.3188 224.072 80.7809 224.48 79.252L224.579 78.9034C226.059 73.8808 230.107 70.2806 234.893 69.1651C231.958 67.2451 230.443 63.5876 231.399 60.0098V60.0088C231.399 60.0081 231.4 60.0071 231.4 60.0059C231.401 60.0029 231.403 59.998 231.404 59.9922C231.407 59.9804 231.412 59.9625 231.418 59.9395C231.43 59.8934 231.449 59.8256 231.473 59.7383C231.519 59.5632 231.587 59.3093 231.671 58.9971C231.838 58.3726 232.067 57.5117 232.32 56.5664L232.548 55.7647C233.106 53.8975 233.868 52.0664 234.879 50.3389C236.027 48.3658 237.482 46.5778 239.15 45.0928L239.466 44.8164C242.736 42.0023 246.377 40.5904 249.441 39.8262L249.451 39.8233L250.391 39.5987C251.323 39.3832 252.225 39.1932 253.054 39.0176C254.189 38.7769 255.188 38.5625 256.141 38.3164L256.165 38.3106C258.096 37.822 259.563 37.2711 260.552 36.6992L260.559 36.6944L260.796 36.5537C261.318 36.2297 261.687 35.9146 261.986 35.586C262.241 35.2971 262.455 35.0018 262.654 34.6309C262.856 34.2545 263.081 33.7234 263.3 32.9414C263.3 32.871 263.292 32.7179 263.239 32.4815L263.19 32.2901C263.056 31.8149 262.773 31.1494 262.283 30.4346L262.279 30.4287C261.141 28.7639 259.12 27.1287 256.414 26.4082V26.4073C252.801 25.4501 250.403 25.6848 248.558 26.1573L248.559 26.1582C247.723 26.3788 247.238 26.6387 247.037 26.7617C247.011 26.7777 246.989 26.792 246.972 26.8037L246.541 27.253L245.751 27.6407C242.132 29.4156 237.762 28.3395 235.376 25.086V25.085L230.692 18.6983V18.6973C229.223 16.694 228.728 14.1484 229.316 11.752L229.319 11.7393L234.17 12.9483L234.131 13.1299C233.96 14.0398 234.17 14.9826 234.72 15.7315L239.403 22.1201C240.298 23.3399 241.891 23.7945 243.279 23.2617L243.554 23.1426C243.554 23.1426 244.641 22.0113 247.287 21.3135C249.944 20.6278 253.219 20.3811 257.697 21.5684C261.602 22.608 264.615 24.9808 266.404 27.5987C267.293 28.8962 267.859 30.234 268.117 31.3877C268.377 32.5512 268.332 33.497 268.148 34.1739C267.525 36.4596 266.681 37.8377 265.699 38.9414C264.956 39.763 264.091 40.4376 263.051 41.0371L262.755 41.2032C261.251 42.0215 259.398 42.6585 257.389 43.167C255.24 43.7216 252.981 44.1111 250.648 44.6875C247.985 45.3519 245.035 46.5412 242.479 48.8291L242.011 49.2637C240.931 50.3051 239.971 51.529 239.19 52.8721C238.292 54.4069 237.622 56.0898 237.148 57.8623L236.227 61.3067L236.186 61.4737C235.817 63.2022 236.862 64.9365 238.585 65.3994L246.346 67.4834C248.069 67.946 249.839 66.9676 250.381 65.2852L250.43 65.1211L251.349 61.6758C251.532 60.9933 251.727 60.574 251.877 60.3145C252.117 59.9312 252.217 59.8462 252.495 59.6485C252.774 59.4645 253.305 59.2103 254.22 58.9825C255.392 58.6819 257.154 58.3504 259.201 57.8848L260.095 57.6768C263.619 56.8176 267.942 55.5485 272.113 52.7237L272.516 52.4463C274.654 50.9375 276.71 48.9805 278.418 46.5498C280.027 44.2732 281.313 41.5944 282.181 38.5918L282.349 37.9864C283.225 34.6955 283.171 31.3316 282.462 28.169C281.423 23.5666 279.049 19.3036 275.659 15.7188L275.328 15.3731C271.872 11.8436 267.347 9.00867 262.02 7.47952L261.503 7.33597C254.664 5.48135 248.5 5.74139 243.548 7.06351L243.089 7.18948C238.418 8.5185 235.954 10.7442 235.954 10.7442C235.062 11.1794 234.409 11.9858 234.17 12.9483L229.32 11.7393C229.858 9.57418 231.233 7.73346 233.117 6.59769C233.214 6.52061 233.324 6.43498 233.447 6.3428C233.903 6.00083 234.538 5.5615 235.346 5.08304C236.957 4.12833 239.276 3.01304 242.262 2.22464V2.22366ZM140 43.1631C111.005 25.151 77.5109 48.6667 79.0106 87.1924C14.5313 103.575 30.7594 173.151 73.9852 174.237L75.0116 174.25H93.0087C127.502 174.25 115.005 223.283 140 213.777V43.1631ZM208.989 87.1924C210.489 48.6666 176.995 25.1509 148 43.1631V213.777C172.995 223.284 160.498 174.25 194.991 174.25H212.988L214.015 174.237C257.241 173.151 273.469 103.575 208.989 87.1924ZM240.414 74.1221C235.577 72.8234 230.603 75.7022 229.307 80.5489L229.198 81.003C228.787 82.9253 229.021 84.8507 229.76 86.541C232.887 88.1955 235.769 90.016 238.409 91.9815C242.13 91.8411 245.499 89.3958 246.69 85.7012L246.822 85.253C248.078 80.5575 245.425 75.7314 240.862 74.2539L240.414 74.1221ZM247.141 26.628C247.142 26.6268 247.144 26.6262 247.145 26.625C247.146 26.6241 247.148 26.6228 247.148 26.6221L247.147 26.6211L247.141 26.628Z" fill="white"/>
<path d="M147.999 43.1621V213.776C172.994 223.283 160.497 174.25 194.99 174.25H212.987C256.979 174.25 273.976 103.703 208.988 87.1916C210.487 48.6658 176.994 25.1499 147.999 43.1621Z" fill="#F53B57"/>
<path d="M140 43.1621V213.776C115.005 223.283 127.503 174.25 93.0088 174.25H75.0121C31.0201 174.25 14.0232 103.703 79.0114 87.1916C77.5117 48.6658 111.006 25.1499 140 43.1621Z" fill="#FFD32A"/>
<path d="M200.499 140C207.955 140 213.999 146.044 213.999 153.5C213.999 160.956 207.955 167 200.499 167C193.043 167 186.999 160.956 186.999 153.5C186.999 146.044 193.043 140 200.499 140ZM107.499 110C117.716 110 125.999 118.283 125.999 128.5C125.999 138.717 117.716 147 107.499 147C97.2818 147 88.9992 138.717 88.999 128.5C88.999 118.283 97.2818 110 107.499 110ZM168.499 112C175.955 112 181.999 118.044 181.999 125.5C181.999 132.956 175.955 139 168.499 139C161.043 139 154.999 132.956 154.999 125.5C154.999 118.044 161.043 112 168.499 112ZM192.499 86C199.955 86.0001 205.999 92.0442 205.999 99.5C205.999 106.956 199.955 113 192.499 113C185.043 113 178.999 106.956 178.999 99.5C178.999 92.0442 185.043 86 192.499 86ZM108.999 72C117.283 72.0001 123.999 78.7158 123.999 87C123.999 95.2841 117.283 102 108.999 102C100.715 102 93.9992 95.2842 93.999 87C93.999 78.7157 100.715 72 108.999 72Z" fill="white"/>
<path d="M282.462 28.1685C281.389 23.4176 278.894 19.0291 275.328 15.374C271.76 11.7305 267.054 8.82696 261.502 7.33609C254.664 5.48142 248.5 5.74146 243.547 7.06366C238.58 8.37246 235.955 10.7445 235.955 10.7445C235.062 11.1797 234.409 11.9861 234.17 12.949C233.933 13.9139 234.133 14.933 234.72 15.7319L239.403 22.1196C240.357 23.4213 242.107 23.8518 243.554 23.142C243.554 23.142 244.641 22.0119 247.288 21.3141C249.945 20.6284 253.219 20.3805 257.697 21.568C261.602 22.6075 264.615 24.9808 266.404 27.5988C267.293 28.8967 267.859 30.2346 268.117 31.3886C268.376 32.5521 268.332 33.4964 268.148 34.1732C267.525 36.4596 266.681 37.8379 265.699 38.9418C264.955 39.7634 264.091 40.4376 263.051 41.0372C261.497 41.9362 259.532 42.6247 257.389 43.1671C255.24 43.7217 252.981 44.1103 250.648 44.6868C247.985 45.3511 245.036 46.541 242.48 48.829C241.209 49.9581 240.082 51.3377 239.19 52.8727C238.292 54.4077 237.622 56.0902 237.148 57.8629C236.643 59.7542 236.227 61.3069 236.227 61.3069C235.751 63.0896 236.806 64.9223 238.585 65.4L246.345 67.4838C248.124 67.9615 249.953 66.9034 250.429 65.1207C250.429 65.1207 250.845 63.568 251.35 61.6767C251.533 60.9937 251.728 60.5741 251.877 60.3145C252.117 59.9312 252.217 59.8461 252.495 59.6483C252.774 59.4643 253.305 59.2108 254.22 58.983C255.56 58.6395 257.669 58.2557 260.095 57.6773C263.733 56.7904 268.221 55.4663 272.516 52.4456C274.654 50.9367 276.71 48.9806 278.418 46.5497C280.135 44.1212 281.483 41.2353 282.349 37.9867C283.225 34.6955 283.171 31.3315 282.462 28.1685Z" fill="#3C40C6"/>
<path d="M240.415 74.1222C235.577 72.8231 230.603 75.7021 229.308 80.5491C228.012 85.3948 230.883 90.3791 235.721 91.6782C240.556 92.9766 245.528 90.0985 246.823 85.2528C248.119 80.4058 245.25 75.4206 240.415 74.1222Z" fill="#3C40C6"/>
</svg>
