<svg fill="none" xmlns="http://www.w3.org/2000/svg" viewBox="23.12 21.72 83.18 83.17">
<path fill-rule="evenodd" clip-rule="evenodd" d="M68.1975 59.8025L83.8528 75.4579L82.7184 89.525C82.378 93.9493 82.0377 94.2896 79.315 96.1047L68.0841 103.479C64.5673 105.634 61.2774 104.613 60.4833 100.416L58.7816 88.2771L49.2523 78.7477L68.1975 59.8025ZM52.5421 44.1472L38.475 45.2817C34.0506 45.622 33.7103 45.9623 31.8952 48.685L24.5213 59.916C22.3659 63.4328 23.3869 66.7227 27.5843 67.5168L39.7229 69.2184L49.2522 78.7478L68.1974 59.8026L52.5421 44.1472Z" fill="#F53B57"/>
<path fill-rule="evenodd" clip-rule="evenodd" d="M104.046 23.9542L104.046 23.9541C110.966 30.8742 103.252 77.8402 59.6892 89.6384C59.3052 89.6756 58.9523 89.7141 58.6249 89.7498C55.9539 90.0413 54.9799 90.1476 52.6556 87.8233L46.4161 81.5839L46.4161 81.5839L40.1766 75.3445C37.8523 73.0202 37.9586 72.0462 38.2501 69.3752C38.2859 69.0478 38.3244 68.6949 38.3615 68.3109C50.1597 24.7482 97.1257 17.034 104.046 23.9542Z" fill="#F1F1FB"/>
<path fill-rule="evenodd" clip-rule="evenodd" d="M58.6248 89.7498C55.9657 90.04 54.9885 90.1467 52.6863 87.854L46.4162 81.5838L56.1723 71.8276L70.1877 85.843C66.9465 87.3382 63.4515 88.6194 59.6892 89.6384C59.3051 89.6756 58.9522 89.7141 58.6248 89.7498ZM38.2501 69.3752C37.9599 72.0341 37.8533 73.0113 40.1453 75.3131L46.4161 81.5839L56.1723 71.8277L42.1569 57.8124C40.6618 61.0536 39.3805 64.5485 38.3615 68.3109C38.3244 68.6949 38.2858 69.0478 38.2501 69.3752L38.2501 69.3752Z" fill="#466288"/>
<path fill-rule="evenodd" clip-rule="evenodd" d="M87.9368 57.3067C92.6985 52.5451 92.6985 44.8249 87.9368 40.0632L70.6933 57.3067C75.455 62.0684 83.1752 62.0684 87.9368 57.3067ZM70.6932 40.0632C75.4549 35.3016 83.1751 35.3016 87.9367 40.0632L70.6932 57.3068C65.9315 52.5451 65.9315 44.8249 70.6932 40.0632Z" fill="#466288"/>
<path fill-rule="evenodd" clip-rule="evenodd" d="M84.5335 53.9034C87.4156 51.0213 87.4155 46.3486 84.5335 43.4665L74.0966 53.9034C76.9787 56.7854 81.6514 56.7855 84.5335 53.9034ZM74.0965 43.4666C76.9786 40.5845 81.6513 40.5845 84.5334 43.4666L74.0966 53.9034C71.2145 51.0214 71.2145 46.3486 74.0965 43.4666Z" fill="#0FBCF9"/>
<path d="M32.0086 78.294C32.9484 77.3542 34.4721 77.3542 35.4119 78.294C36.3517 79.2338 36.3517 80.7576 35.4119 81.6974L27.4708 89.6385C26.531 90.5783 25.0073 90.5783 24.0675 89.6385C23.1277 88.6987 23.1277 87.175 24.0675 86.2352L32.0086 78.294Z" fill="#FFA801"/>
<path d="M49.706 95.9913C50.6458 95.0515 50.6458 93.5278 49.706 92.588C48.7662 91.6482 47.2425 91.6482 46.3027 92.588L38.3616 100.529C37.4218 101.469 37.4218 102.993 38.3616 103.932C39.3014 104.872 40.8251 104.872 41.7649 103.932L49.706 95.9913Z" fill="#FFA801"/>
<path fill-rule="evenodd" clip-rule="evenodd" d="M42.6725 85.5544C42.6343 85.5163 42.5953 85.4797 42.5553 85.4447L23.9579 104.042C23.9929 104.082 24.0295 104.121 24.0676 104.159C25.0074 105.099 26.5311 105.099 27.4709 104.159L42.6725 88.9578C43.6123 88.018 43.6123 86.4942 42.6725 85.5544ZM42.4455 85.3276C42.4836 85.3657 42.5202 85.4048 42.5552 85.4448L23.9578 104.042C23.9178 104.007 23.8788 103.971 23.8406 103.932C22.9008 102.993 22.9008 101.469 23.8406 100.529L39.0422 85.3276C39.982 84.3878 41.5057 84.3878 42.4455 85.3276Z" fill="#FFA801"/>
<path fill-rule="evenodd" clip-rule="evenodd" d="M46.4161 81.5839L104.046 23.9541C109.424 29.3326 105.963 58.902 83.7003 77.349L82.7184 89.525C82.378 93.9493 82.0377 94.2897 79.315 96.1048L68.084 103.479C64.5672 105.634 61.2774 104.613 60.4832 100.416L58.9826 89.711C58.86 89.7242 58.7408 89.7372 58.6248 89.7499C55.9539 90.0414 54.9798 90.1477 52.6555 87.8234L46.4161 81.5839Z" fill="#5F27CD" fill-opacity="0.25"/>
<path d="M49.706 95.9913C50.6458 95.0515 50.6458 93.5278 49.706 92.588C48.7662 91.6482 47.2425 91.6482 46.3027 92.588L38.3616 100.529C37.4218 101.469 37.4218 102.993 38.3616 103.932C39.3014 104.872 40.8251 104.872 41.7649 103.932L49.706 95.9913Z" fill="#5F27CD" fill-opacity="0.25"/>
<path fill-rule="evenodd" clip-rule="evenodd" d="M42.5553 85.4447C42.5953 85.4797 42.6343 85.5163 42.6725 85.5544C43.6123 86.4942 43.6123 88.018 42.6725 88.9578L27.4709 104.159C26.5311 105.099 25.0074 105.099 24.0676 104.159C24.0294 104.121 23.9929 104.082 23.9578 104.042L42.5553 85.4447Z" fill="#5F27CD" fill-opacity="0.25"/>
</svg>